# Blender 4.0.1
# www.blender.org
mtllib fence.mtl
o fence
v 2.070078 3.129453 -0.804653
v 4.413101 3.129453 -0.804653
v 2.070078 3.088307 -0.733386
v 4.413101 3.088307 -0.733386
v 2.070078 3.170600 -0.733386
v 4.413101 3.170600 -0.733386
v 3.978793 2.660426 -0.803625
v 3.978793 3.314969 -0.803625
v 4.019939 2.660426 -0.732358
v 4.019939 3.314969 -0.732358
v 3.937647 2.660426 -0.732358
v 3.937647 3.314969 -0.732358
v 3.458250 2.660426 -0.803625
v 3.458250 3.314969 -0.803625
v 3.499396 2.660426 -0.732358
v 3.499396 3.314969 -0.732358
v 3.417104 2.660426 -0.732358
v 3.417104 3.314969 -0.732358
v 2.848903 2.660426 -0.803625
v 2.848903 3.314969 -0.803625
v 2.890049 2.660426 -0.732358
v 2.890049 3.314969 -0.732358
v 2.807757 2.660426 -0.732358
v 2.807757 3.314969 -0.732358
v 2.285632 2.660426 -0.803625
v 2.285632 3.314969 -0.803625
v 2.326779 2.660426 -0.732358
v 2.326778 3.314969 -0.732358
v 2.244486 2.660426 -0.732358
v 2.244486 3.314969 -0.732358
vn -0.0000 -0.8660 -0.5000
vn -0.0000 -0.0000 1.0000
vn 1.0000 -0.0000 -0.0000
vn -0.0000 0.8660 -0.5000
vn -1.0000 -0.0000 -0.0000
vn 0.8660 -0.0000 -0.5000
vn -0.0000 1.0000 -0.0000
vn -0.8660 -0.0000 -0.5000
vn -0.0000 -1.0000 -0.0000
vt 1.000000 0.500000
vt 1.000000 1.000000
vt 0.666667 1.000000
vt 0.666667 0.500000
vt 0.333333 1.000000
vt 0.333333 0.500000
vt 0.457846 0.130000
vt 0.250000 0.490000
vt 0.042154 0.130000
vt -0.000000 1.000000
vt -0.000000 0.500000
vt 0.750000 0.490000
vt 0.957846 0.130000
vt 0.542154 0.130000
s 0
usemtl Material.003
f 1/1/1 2/2/1 4/3/1 3/4/1
f 3/4/2 4/3/2 6/5/2 5/6/2
f 4/7/3 2/8/3 6/9/3
f 5/6/4 6/5/4 2/10/4 1/11/4
f 1/12/5 3/13/5 5/14/5
f 7/1/6 8/2/6 10/3/6 9/4/6
f 9/4/2 10/3/2 12/5/2 11/6/2
f 10/7/7 8/8/7 12/9/7
f 11/6/8 12/5/8 8/10/8 7/11/8
f 7/12/9 9/13/9 11/14/9
f 13/1/6 14/2/6 16/3/6 15/4/6
f 15/4/2 16/3/2 18/5/2 17/6/2
f 16/7/7 14/8/7 18/9/7
f 17/6/8 18/5/8 14/10/8 13/11/8
f 13/12/9 15/13/9 17/14/9
f 19/1/6 20/2/6 22/3/6 21/4/6
f 21/4/2 22/3/2 24/5/2 23/6/2
f 22/7/7 20/8/7 24/9/7
f 23/6/8 24/5/8 20/10/8 19/11/8
f 19/12/9 21/13/9 23/14/9
f 25/1/6 26/2/6 28/3/6 27/4/6
f 27/4/2 28/3/2 30/5/2 29/6/2
f 28/7/7 26/8/7 30/9/7
f 29/6/8 30/5/8 26/10/8 25/11/8
f 25/12/9 27/13/9 29/14/9
