# Blender 4.0.1
# www.blender.org
mtllib flower-box.mtl
o flower-box
v 0.756732 0.319410 -2.682402
v 0.829661 0.588986 -2.710575
v 0.756732 0.407711 -2.930813
v 0.829661 0.588986 -2.902640
v 1.399781 0.319410 -2.682402
v 1.326852 0.588986 -2.710575
v 1.399781 0.407711 -2.930813
v 1.326852 0.588986 -2.902640
v 0.756732 0.588986 -2.682402
v 0.756732 0.588986 -2.930813
v 1.399781 0.588986 -2.930813
v 1.399781 0.588986 -2.682402
v 0.829661 0.502612 -2.710575
v 0.829661 0.502612 -2.902640
v 1.326852 0.502612 -2.902640
v 1.326852 0.502612 -2.710575
v -0.358049 0.319410 -2.682402
v -0.285119 0.588986 -2.710575
v -0.358049 0.407711 -2.930813
v -0.285119 0.588986 -2.902640
v 0.285000 0.319410 -2.682402
v 0.212071 0.588986 -2.710575
v 0.285000 0.407711 -2.930813
v 0.212071 0.588986 -2.902640
v -0.358049 0.588986 -2.682402
v -0.358049 0.588986 -2.930813
v 0.285000 0.588986 -2.930813
v 0.285000 0.588986 -2.682402
v -0.285119 0.502612 -2.710575
v -0.285119 0.502612 -2.902640
v 0.212071 0.502612 -2.902640
v 0.212071 0.502612 -2.710575
v -1.468668 0.319410 -2.682402
v -1.395738 0.588986 -2.710575
v -1.468668 0.407711 -2.930813
v -1.395738 0.588986 -2.902640
v -0.825619 0.319410 -2.682402
v -0.898548 0.588986 -2.710575
v -0.825619 0.407711 -2.930813
v -0.898548 0.588986 -2.902640
v -1.468668 0.588986 -2.682402
v -1.468668 0.588986 -2.930813
v -0.825619 0.588986 -2.930813
v -0.825619 0.588986 -2.682402
v -1.395738 0.502612 -2.710575
v -1.395738 0.502612 -2.902640
v -0.898548 0.502612 -2.902640
v -0.898548 0.502612 -2.710575
vn -1.0000 -0.0000 -0.0000
vn -0.0000 -0.0000 -1.0000
vn 1.0000 -0.0000 -0.0000
vn -0.0000 -0.0000 1.0000
vn -0.0000 -0.9422 -0.3349
vn -0.0000 1.0000 -0.0000
vt 0.375000 0.000000
vt 0.625000 0.000000
vt 0.625000 0.250000
vt 0.375000 0.250000
vt 0.625000 0.500000
vt 0.375000 0.500000
vt 0.625000 0.750000
vt 0.375000 0.750000
vt 0.625000 1.000000
vt 0.375000 1.000000
vt 0.125000 0.500000
vt 0.125000 0.750000
vt 0.653353 0.721647
vt 0.653353 0.528353
vt 0.846647 0.721647
vt 0.846647 0.528353
vt 0.875000 0.500000
vt 0.875000 0.750000
s 0
usemtl Material.006
f 1/1/1 9/2/1 10/3/1 3/4/1
f 3/4/2 10/3/2 11/5/2 7/6/2
f 7/6/3 11/5/3 12/7/3 5/8/3
f 5/8/4 12/7/4 9/9/4 1/10/4
f 3/11/5 7/6/5 5/8/5 1/12/5
f 6/13/1 8/14/1 15/14/1 16/13/1
f 2/15/6 4/16/6 10/17/6 9/18/6
f 4/16/6 8/14/6 11/5/6 10/17/6
f 8/14/6 6/13/6 12/7/6 11/5/6
f 6/13/6 2/15/6 9/18/6 12/7/6
f 15/14/6 14/16/6 13/15/6 16/13/6
f 4/16/3 2/15/3 13/15/3 14/16/3
f 2/15/2 6/13/2 16/13/2 13/15/2
f 8/14/4 4/16/4 14/16/4 15/14/4
f 17/1/1 25/2/1 26/3/1 19/4/1
f 19/4/2 26/3/2 27/5/2 23/6/2
f 23/6/3 27/5/3 28/7/3 21/8/3
f 21/8/4 28/7/4 25/9/4 17/10/4
f 19/11/5 23/6/5 21/8/5 17/12/5
f 22/13/1 24/14/1 31/14/1 32/13/1
f 18/15/6 20/16/6 26/17/6 25/18/6
f 20/16/6 24/14/6 27/5/6 26/17/6
f 24/14/6 22/13/6 28/7/6 27/5/6
f 22/13/6 18/15/6 25/18/6 28/7/6
f 31/14/6 30/16/6 29/15/6 32/13/6
f 20/16/3 18/15/3 29/15/3 30/16/3
f 18/15/2 22/13/2 32/13/2 29/15/2
f 24/14/4 20/16/4 30/16/4 31/14/4
f 33/1/1 41/2/1 42/3/1 35/4/1
f 35/4/2 42/3/2 43/5/2 39/6/2
f 39/6/3 43/5/3 44/7/3 37/8/3
f 37/8/4 44/7/4 41/9/4 33/10/4
f 35/11/5 39/6/5 37/8/5 33/12/5
f 38/13/1 40/14/1 47/14/1 48/13/1
f 34/15/6 36/16/6 42/17/6 41/18/6
f 36/16/6 40/14/6 43/5/6 42/17/6
f 40/14/6 38/13/6 44/7/6 43/5/6
f 38/13/6 34/15/6 41/18/6 44/7/6
f 47/14/6 46/16/6 45/15/6 48/13/6
f 36/16/3 34/15/3 45/15/3 46/16/3
f 34/15/2 38/13/2 48/13/2 45/15/2
f 40/14/4 36/16/4 46/16/4 47/14/4
