# Blender 4.0.1
# www.blender.org
mtllib pots.mtl
o pot
v 2.300867 -0.001280 -1.364336
v 2.300867 0.404894 -1.481456
v 2.394801 -0.001280 -1.325428
v 2.477617 0.404894 -1.408244
v 2.433710 -0.001280 -1.231493
v 2.550830 0.404894 -1.231493
v 2.394801 -0.001280 -1.137559
v 2.477617 0.404894 -1.054743
v 2.300867 -0.001280 -1.098650
v 2.300867 0.404894 -0.981530
v 2.206933 -0.001280 -1.137559
v 2.124116 0.404894 -1.054743
v 2.168024 -0.001280 -1.231493
v 2.050904 0.404894 -1.231493
v 2.206933 -0.001280 -1.325428
v 2.124116 0.404894 -1.408244
v 2.300867 0.334510 -1.461161
v 2.463267 0.334510 -1.393893
v 2.530535 0.334510 -1.231493
v 2.463267 0.334510 -1.069094
v 2.300867 0.334510 -1.001825
v 2.138467 0.334510 -1.069094
v 2.071199 0.334510 -1.231493
v 2.138467 0.334510 -1.393893
v 2.457145 0.304489 -1.387772
v 2.521878 0.304489 -1.231493
v 2.457145 0.304489 -1.075215
v 2.300867 0.304489 -1.010482
v 2.144588 0.304489 -1.075215
v 2.079856 0.304489 -1.231493
v 2.144588 0.304489 -1.387772
v 2.300867 0.304489 -1.452504
v 2.477617 0.404894 -1.408244
v 2.300867 0.404894 -1.481456
v 2.300867 0.334510 -1.461161
v 2.550830 0.404894 -1.231493
v 2.477617 0.404894 -1.054743
v 2.300867 0.404894 -0.981530
v 2.124116 0.404894 -1.054743
v 2.050904 0.404894 -1.231493
v 2.124116 0.404894 -1.408244
v 2.463267 0.334510 -1.393893
v 2.530535 0.334510 -1.231493
v 2.463267 0.334510 -1.069094
v 2.300867 0.334510 -1.001825
v 2.138467 0.334510 -1.069094
v 2.071199 0.334510 -1.231493
v 2.138467 0.334510 -1.393893
v 2.489369 0.400102 -1.419995
v 2.300867 0.400102 -1.498075
v 2.300867 0.329718 -1.477780
v 2.567449 0.400102 -1.231493
v 2.489369 0.400102 -1.042991
v 2.300867 0.400102 -0.964911
v 2.112365 0.400102 -1.042991
v 2.034285 0.400102 -1.231493
v 2.112365 0.400102 -1.419995
v 2.475018 0.329718 -1.405645
v 2.547154 0.329718 -1.231493
v 2.475018 0.329718 -1.057342
v 2.300867 0.329718 -0.985206
v 2.126715 0.329718 -1.057342
v 2.054580 0.329718 -1.231493
v 2.126715 0.329718 -1.405645
v 3.937950 2.654569 0.098146
v 3.937950 3.160774 -0.047818
v 4.055018 2.654569 0.146637
v 4.158230 3.160774 0.043425
v 4.103509 2.654569 0.263705
v 4.249473 3.160774 0.263705
v 4.055018 2.654569 0.380774
v 4.158230 3.160774 0.483986
v 3.937950 2.654569 0.429265
v 3.937950 3.160774 0.575229
v 3.820882 2.654569 0.380774
v 3.717670 3.160774 0.483986
v 3.772390 2.654569 0.263705
v 3.626427 3.160774 0.263705
v 3.820882 2.654569 0.146637
v 3.717670 3.160774 0.043425
v 3.937950 3.073057 -0.022524
v 4.140345 3.073057 0.061310
v 4.224180 3.073057 0.263705
v 4.140345 3.073057 0.466101
v 3.937950 3.073057 0.549935
v 3.735555 3.073057 0.466101
v 3.651720 3.073057 0.263705
v 3.735555 3.073057 0.061310
v 4.132716 3.035641 0.068939
v 4.213391 3.035641 0.263705
v 4.132716 3.035641 0.458472
v 3.937950 3.035641 0.539147
v 3.743184 3.035641 0.458472
v 3.662509 3.035641 0.263705
v 3.743184 3.035641 0.068939
v 3.937950 3.035641 -0.011736
v 4.158230 3.160774 0.043425
v 3.937950 3.160774 -0.047818
v 3.937950 3.073057 -0.022524
v 4.249473 3.160774 0.263705
v 4.158230 3.160774 0.483986
v 3.937950 3.160774 0.575229
v 3.717670 3.160774 0.483986
v 3.626427 3.160774 0.263705
v 3.717670 3.160774 0.043425
v 4.140345 3.073057 0.061310
v 4.224180 3.073057 0.263705
v 4.140345 3.073057 0.466101
v 3.937950 3.073057 0.549935
v 3.735555 3.073057 0.466101
v 3.651720 3.073057 0.263705
v 3.735555 3.073057 0.061310
v 4.172876 3.154802 0.028780
v 3.937950 3.154802 -0.068530
v 3.937950 3.067084 -0.043237
v 4.270185 3.154802 0.263705
v 4.172876 3.154802 0.498631
v 3.937950 3.154802 0.595941
v 3.703024 3.154802 0.498631
v 3.605715 3.154802 0.263705
v 3.703024 3.154802 0.028780
v 4.154991 3.067084 0.046665
v 4.244892 3.067084 0.263705
v 4.154991 3.067084 0.480746
v 3.937950 3.067084 0.570648
v 3.720909 3.067084 0.480746
v 3.631008 3.067084 0.263705
v 3.720909 3.067084 0.046665
v 3.296732 2.668617 0.131903
v 3.296732 3.071609 0.015700
v 3.389931 2.668617 0.170507
v 3.472099 3.071609 0.088339
v 3.428535 2.668617 0.263705
v 3.544738 3.071609 0.263705
v 3.389931 2.668617 0.356904
v 3.472099 3.071609 0.439072
v 3.296732 2.668617 0.395508
v 3.296732 3.071609 0.511711
v 3.203534 2.668617 0.356904
v 3.121366 3.071609 0.439072
v 3.164930 2.668617 0.263705
v 3.048727 3.071609 0.263705
v 3.203534 2.668617 0.170507
v 3.121366 3.071609 0.088339
v 3.296732 3.001777 0.035836
v 3.457860 3.001777 0.102578
v 3.524601 3.001777 0.263705
v 3.457860 3.001777 0.424833
v 3.296732 3.001777 0.491575
v 3.135605 3.001777 0.424833
v 3.068863 3.001777 0.263705
v 3.135605 3.001777 0.102578
v 3.451787 2.971991 0.108651
v 3.516013 2.971991 0.263705
v 3.451787 2.971991 0.418760
v 3.296732 2.971991 0.482986
v 3.141678 2.971991 0.418760
v 3.077452 2.971991 0.263705
v 3.141678 2.971991 0.108651
v 3.296732 2.971991 0.044425
v 3.472099 3.071609 0.088339
v 3.296732 3.071609 0.015700
v 3.296732 3.001777 0.035836
v 3.544738 3.071609 0.263705
v 3.472099 3.071609 0.439072
v 3.296732 3.071609 0.511711
v 3.121366 3.071609 0.439072
v 3.048727 3.071609 0.263705
v 3.121366 3.071609 0.088339
v 3.457860 3.001777 0.102578
v 3.524601 3.001777 0.263705
v 3.457860 3.001777 0.424833
v 3.296732 3.001777 0.491575
v 3.135605 3.001777 0.424833
v 3.068863 3.001777 0.263705
v 3.135605 3.001777 0.102578
v 3.483758 3.066855 0.076680
v 3.296732 3.066855 -0.000789
v 3.296732 2.997022 0.019347
v 3.561227 3.066855 0.263705
v 3.483758 3.066855 0.450731
v 3.296732 3.066855 0.528200
v 3.109707 3.066855 0.450731
v 3.032238 3.066855 0.263705
v 3.109707 3.066855 0.076680
v 3.469520 2.997022 0.090918
v 3.541091 2.997022 0.263705
v 3.469520 2.997022 0.436493
v 3.296732 2.997022 0.508064
v 3.123945 2.997022 0.436493
v 3.052374 2.997022 0.263705
v 3.123945 2.997022 0.090918
vn -0.0000 1.0000 -0.0000
vn -0.0000 -1.0000 -0.0000
vn -0.3698 -0.2574 -0.8927
vn -0.8927 -0.2574 -0.3698
vn -0.8927 -0.2574 0.3698
vn -0.3698 -0.2574 0.8927
vn 0.3698 -0.2574 0.8927
vn 0.8927 -0.2574 0.3698
vn 0.8927 -0.2574 -0.3698
vn 0.3698 -0.2574 -0.8927
vn -0.1140 0.9546 -0.2753
vn 0.1140 0.9546 -0.2753
vn -0.2753 -0.9546 0.1140
vn -0.2753 0.9546 -0.1140
vn -0.2753 -0.9546 -0.1140
vn -0.2753 0.9546 0.1140
vn -0.1140 -0.9546 -0.2753
vn -0.1140 0.9546 0.2753
vn -0.1140 -0.9546 0.2753
vn 0.1140 -0.9546 0.2753
vn 0.2753 0.9546 -0.1140
vn 0.2753 -0.9546 0.1140
vn 0.2753 0.9546 0.1140
vn 0.2753 -0.9546 -0.1140
vn 0.1140 0.9546 0.2753
vn 0.1140 -0.9546 -0.2753
vn -0.2752 0.9546 -0.1140
vn -0.2752 0.9546 0.1140
vn 0.2752 0.9546 -0.1140
vn 0.2752 0.9546 0.1140
vt 0.080294 0.419706
vt 0.250000 0.490000
vt 0.490000 0.250000
vt 0.419706 0.080294
vt 0.625000 0.913358
vt 0.750000 0.913358
vt 0.250000 0.010000
vt 0.080294 0.080294
vt 0.500000 0.913358
vt 0.375000 0.913358
vt 0.419706 0.419706
vt 0.010000 0.250000
vt 0.750000 0.490000
vt 0.919706 0.419706
vt 0.990000 0.250000
vt 0.919706 0.080294
vt 0.750000 0.010000
vt 0.580294 0.080294
vt 0.510000 0.250000
vt 0.580294 0.419706
vt 0.125000 0.876401
vt 0.125000 0.913358
vt 0.000000 0.913358
vt 0.000000 0.876401
vt 0.250000 0.876401
vt 0.250000 0.913358
vt 0.375000 0.876401
vt 0.500000 0.876401
vt 0.625000 0.876401
vt 0.750000 0.876401
vt 0.875000 0.876401
vt 0.875000 0.913358
vt 1.000000 0.876401
vt 1.000000 0.913358
vt 1.000000 0.500000
vt 0.875000 0.500000
vt 0.750000 0.500000
vt 0.625000 0.500000
vt 0.500000 0.500000
vt 0.375000 0.500000
vt 0.250000 0.500000
vt 0.125000 0.500000
vt 0.000000 0.500000
vt 1.000000 1.000000
vt 0.875000 1.000000
vt 0.750000 1.000000
vt 0.625000 1.000000
vt 0.500000 1.000000
vt 0.375000 1.000000
vt 0.250000 1.000000
vt 0.125000 1.000000
vt 0.000000 1.000000
s 0
usemtl Material.006
f 16/1/1 2/2/1 34/2/1 41/1/1
f 6/3/1 8/4/1 37/4/1 36/3/1
f 20/5/1 19/6/1 43/6/1 44/5/1
f 10/7/1 12/8/1 39/8/1 38/7/1
f 21/9/1 20/5/1 44/5/1 45/9/1
f 22/10/1 21/9/1 45/9/1 46/10/1
f 4/11/1 2/2/1 16/1/1 14/12/1 12/8/1 10/7/1 8/4/1 6/3/1
f 14/12/1 16/1/1 41/1/1 40/12/1
f 4/11/1 6/3/1 36/3/1 33/11/1
f 1/13/2 3/14/2 5/15/2 7/16/2 9/17/2 11/18/2 13/19/2 15/20/2
f 31/21/3 24/22/3 17/23/3 32/24/3
f 30/25/4 23/26/4 24/22/4 31/21/4
f 29/27/5 22/10/5 23/26/5 30/25/5
f 28/28/6 21/9/6 22/10/6 29/27/6
f 27/29/7 20/5/7 21/9/7 28/28/7
f 26/30/8 19/6/8 20/5/8 27/29/8
f 25/31/9 18/32/9 19/6/9 26/30/9
f 32/33/10 17/34/10 18/32/10 25/31/10
f 1/35/10 32/33/10 25/31/10 3/36/10
f 3/36/9 25/31/9 26/30/9 5/37/9
f 5/37/8 26/30/8 27/29/8 7/38/8
f 7/38/7 27/29/7 28/28/7 9/39/7
f 9/39/6 28/28/6 29/27/6 11/40/6
f 11/40/5 29/27/5 30/25/5 13/41/5
f 13/41/4 30/25/4 31/21/4 15/42/4
f 15/42/3 31/21/3 32/24/3 1/43/3
f 41/1/11 34/2/11 50/2/11 57/1/11
f 34/2/12 33/11/12 49/11/12 50/2/12
f 43/6/13 42/32/13 58/32/13 59/6/13
f 40/12/14 41/1/14 57/1/14 56/12/14
f 44/5/15 43/6/15 59/6/15 60/5/15
f 39/8/16 40/12/16 56/12/16 55/8/16
f 45/9/17 44/5/17 60/5/17 61/9/17
f 38/7/18 39/8/18 55/8/18 54/7/18
f 19/6/1 18/32/1 42/32/1 43/6/1
f 2/2/1 4/11/1 33/11/1 34/2/1
f 18/32/1 17/34/1 35/34/1 42/32/1
f 12/8/1 14/12/1 40/12/1 39/8/1
f 17/23/1 24/22/1 48/22/1 35/23/1
f 24/22/1 23/26/1 47/26/1 48/22/1
f 8/4/1 10/7/1 38/7/1 37/4/1
f 23/26/1 22/10/1 46/10/1 47/26/1
f 51/34/10 50/44/10 49/45/10 58/32/10
f 58/32/9 49/45/9 52/46/9 59/6/9
f 59/6/8 52/46/8 53/47/8 60/5/8
f 60/5/7 53/47/7 54/48/7 61/9/7
f 61/9/6 54/48/6 55/49/6 62/10/6
f 62/10/5 55/49/5 56/50/5 63/26/5
f 63/26/4 56/50/4 57/51/4 64/22/4
f 64/22/3 57/51/3 50/52/3 51/23/3
f 42/32/19 35/34/19 51/34/19 58/32/19
f 35/23/20 48/22/20 64/22/20 51/23/20
f 33/11/21 36/3/21 52/3/21 49/11/21
f 48/22/22 47/26/22 63/26/22 64/22/22
f 36/3/23 37/4/23 53/4/23 52/3/23
f 47/26/24 46/10/24 62/10/24 63/26/24
f 37/4/25 38/7/25 54/7/25 53/4/25
f 46/10/26 45/9/26 61/9/26 62/10/26
f 80/1/1 66/2/1 98/2/1 105/1/1
f 70/3/1 72/4/1 101/4/1 100/3/1
f 84/5/1 83/6/1 107/6/1 108/5/1
f 74/7/1 76/8/1 103/8/1 102/7/1
f 85/9/1 84/5/1 108/5/1 109/9/1
f 86/10/1 85/9/1 109/9/1 110/10/1
f 68/11/1 66/2/1 80/1/1 78/12/1 76/8/1 74/7/1 72/4/1 70/3/1
f 78/12/1 80/1/1 105/1/1 104/12/1
f 68/11/1 70/3/1 100/3/1 97/11/1
f 65/13/2 67/14/2 69/15/2 71/16/2 73/17/2 75/18/2 77/19/2 79/20/2
f 95/21/3 88/22/3 81/23/3 96/24/3
f 94/25/4 87/26/4 88/22/4 95/21/4
f 93/27/5 86/10/5 87/26/5 94/25/5
f 92/28/6 85/9/6 86/10/6 93/27/6
f 91/29/7 84/5/7 85/9/7 92/28/7
f 90/30/8 83/6/8 84/5/8 91/29/8
f 89/31/9 82/32/9 83/6/9 90/30/9
f 96/33/10 81/34/10 82/32/10 89/31/10
f 65/35/10 96/33/10 89/31/10 67/36/10
f 67/36/9 89/31/9 90/30/9 69/37/9
f 69/37/8 90/30/8 91/29/8 71/38/8
f 71/38/7 91/29/7 92/28/7 73/39/7
f 73/39/6 92/28/6 93/27/6 75/40/6
f 75/40/5 93/27/5 94/25/5 77/41/5
f 77/41/4 94/25/4 95/21/4 79/42/4
f 79/42/3 95/21/3 96/24/3 65/43/3
f 105/1/11 98/2/11 114/2/11 121/1/11
f 98/2/12 97/11/12 113/11/12 114/2/12
f 107/6/13 106/32/13 122/32/13 123/6/13
f 104/12/27 105/1/27 121/1/27 120/12/27
f 108/5/15 107/6/15 123/6/15 124/5/15
f 103/8/28 104/12/28 120/12/28 119/8/28
f 109/9/17 108/5/17 124/5/17 125/9/17
f 102/7/18 103/8/18 119/8/18 118/7/18
f 83/6/1 82/32/1 106/32/1 107/6/1
f 66/2/1 68/11/1 97/11/1 98/2/1
f 82/32/1 81/34/1 99/34/1 106/32/1
f 76/8/1 78/12/1 104/12/1 103/8/1
f 81/23/1 88/22/1 112/22/1 99/23/1
f 88/22/1 87/26/1 111/26/1 112/22/1
f 72/4/1 74/7/1 102/7/1 101/4/1
f 87/26/1 86/10/1 110/10/1 111/26/1
f 115/34/10 114/44/10 113/45/10 122/32/10
f 122/32/9 113/45/9 116/46/9 123/6/9
f 123/6/8 116/46/8 117/47/8 124/5/8
f 124/5/7 117/47/7 118/48/7 125/9/7
f 125/9/6 118/48/6 119/49/6 126/10/6
f 126/10/5 119/49/5 120/50/5 127/26/5
f 127/26/4 120/50/4 121/51/4 128/22/4
f 128/22/3 121/51/3 114/52/3 115/23/3
f 106/32/19 99/34/19 115/34/19 122/32/19
f 99/23/20 112/22/20 128/22/20 115/23/20
f 97/11/29 100/3/29 116/3/29 113/11/29
f 112/22/22 111/26/22 127/26/22 128/22/22
f 100/3/30 101/4/30 117/4/30 116/3/30
f 111/26/24 110/10/24 126/10/24 127/26/24
f 101/4/25 102/7/25 118/7/25 117/4/25
f 110/10/26 109/9/26 125/9/26 126/10/26
f 144/1/1 130/2/1 162/2/1 169/1/1
f 134/3/1 136/4/1 165/4/1 164/3/1
f 148/5/1 147/6/1 171/6/1 172/5/1
f 138/7/1 140/8/1 167/8/1 166/7/1
f 149/9/1 148/5/1 172/5/1 173/9/1
f 150/10/1 149/9/1 173/9/1 174/10/1
f 132/11/1 130/2/1 144/1/1 142/12/1 140/8/1 138/7/1 136/4/1 134/3/1
f 142/12/1 144/1/1 169/1/1 168/12/1
f 132/11/1 134/3/1 164/3/1 161/11/1
f 129/13/2 131/14/2 133/15/2 135/16/2 137/17/2 139/18/2 141/19/2 143/20/2
f 159/21/3 152/22/3 145/23/3 160/24/3
f 158/25/4 151/26/4 152/22/4 159/21/4
f 157/27/5 150/10/5 151/26/5 158/25/5
f 156/28/6 149/9/6 150/10/6 157/27/6
f 155/29/7 148/5/7 149/9/7 156/28/7
f 154/30/8 147/6/8 148/5/8 155/29/8
f 153/31/9 146/32/9 147/6/9 154/30/9
f 160/33/10 145/34/10 146/32/10 153/31/10
f 129/35/10 160/33/10 153/31/10 131/36/10
f 131/36/9 153/31/9 154/30/9 133/37/9
f 133/37/8 154/30/8 155/29/8 135/38/8
f 135/38/7 155/29/7 156/28/7 137/39/7
f 137/39/6 156/28/6 157/27/6 139/40/6
f 139/40/5 157/27/5 158/25/5 141/41/5
f 141/41/4 158/25/4 159/21/4 143/42/4
f 143/42/3 159/21/3 160/24/3 129/43/3
f 169/1/11 162/2/11 178/2/11 185/1/11
f 162/2/12 161/11/12 177/11/12 178/2/12
f 171/6/13 170/32/13 186/32/13 187/6/13
f 168/12/14 169/1/14 185/1/14 184/12/14
f 172/5/15 171/6/15 187/6/15 188/5/15
f 167/8/28 168/12/28 184/12/28 183/8/28
f 173/9/17 172/5/17 188/5/17 189/9/17
f 166/7/18 167/8/18 183/8/18 182/7/18
f 147/6/1 146/32/1 170/32/1 171/6/1
f 130/2/1 132/11/1 161/11/1 162/2/1
f 146/32/1 145/34/1 163/34/1 170/32/1
f 140/8/1 142/12/1 168/12/1 167/8/1
f 145/23/1 152/22/1 176/22/1 163/23/1
f 152/22/1 151/26/1 175/26/1 176/22/1
f 136/4/1 138/7/1 166/7/1 165/4/1
f 151/26/1 150/10/1 174/10/1 175/26/1
f 179/34/10 178/44/10 177/45/10 186/32/10
f 186/32/9 177/45/9 180/46/9 187/6/9
f 187/6/8 180/46/8 181/47/8 188/5/8
f 188/5/7 181/47/7 182/48/7 189/9/7
f 189/9/6 182/48/6 183/49/6 190/10/6
f 190/10/5 183/49/5 184/50/5 191/26/5
f 191/26/4 184/50/4 185/51/4 192/22/4
f 192/22/3 185/51/3 178/52/3 179/23/3
f 170/32/19 163/34/19 179/34/19 186/32/19
f 163/23/20 176/22/20 192/22/20 179/23/20
f 161/11/21 164/3/21 180/3/21 177/11/21
f 176/22/22 175/26/22 191/26/22 192/22/22
f 164/3/30 165/4/30 181/4/30 180/3/30
f 175/26/24 174/10/24 190/10/24 191/26/24
f 165/4/25 166/7/25 182/7/25 181/4/25
f 174/10/26 173/9/26 189/9/26 190/10/26
