# Blender 4.0.1
# www.blender.org
mtllib roof.mtl
o roof
v 1.425968 4.499798 2.342614
v 1.467653 4.552441 2.342614
v 1.425968 4.499798 -2.342614
v 1.467653 4.552441 -2.342614
v 1.769027 4.228142 2.342614
v 1.810712 4.280785 2.342614
v 1.769027 4.228142 -2.342614
v 1.810712 4.280785 -2.342614
v 1.077925 4.787833 2.342614
v 1.119611 4.840476 2.342614
v 1.077925 4.787833 -2.342614
v 1.119611 4.840476 -2.342614
v 1.420984 4.516177 2.342614
v 1.462670 4.568820 2.342614
v 1.420984 4.516177 -2.342614
v 1.462670 4.568820 -2.342614
v 0.717882 5.087870 2.342614
v 0.759568 5.140512 2.342614
v 0.717882 5.087870 -2.342614
v 0.759568 5.140512 -2.342614
v 1.060941 4.816214 2.342614
v 1.102627 4.868856 2.342614
v 1.060941 4.816214 -2.342614
v 1.102627 4.868856 -2.342614
v 0.357838 5.375905 2.342614
v 0.399524 5.428547 2.342614
v 0.357838 5.375905 -2.342614
v 0.399524 5.428547 -2.342614
v 0.700897 5.104249 2.342614
v 0.742583 5.156891 2.342614
v 0.700897 5.104249 -2.342614
v 0.742583 5.156891 -2.342614
v -0.002205 5.663939 2.342614
v 0.039481 5.716582 2.342614
v -0.002205 5.663939 -2.342614
v 0.039481 5.716582 -2.342614
v 0.340854 5.392283 2.342614
v 0.382540 5.444926 2.342614
v 0.340854 5.392283 -2.342614
v 0.382540 5.444926 -2.342614
v -0.350307 5.377962 2.342614
v -0.394126 5.428843 2.342614
v -0.350307 5.377962 -2.342614
v -0.394126 5.428843 -2.342614
v -0.018729 5.663518 2.342614
v -0.062547 5.714399 2.342614
v -0.018729 5.663518 -2.342614
v -0.062547 5.714399 -2.342614
v -0.705583 5.078198 2.342614
v -0.749401 5.129079 2.342614
v -0.705583 5.078198 -2.342614
v -0.749401 5.129079 -2.342614
v -0.374004 5.363754 2.342614
v -0.417823 5.414635 2.342614
v -0.374004 5.363754 -2.342614
v -0.417823 5.414635 -2.342614
v -1.060858 4.789537 2.342614
v -1.104677 4.840418 2.342614
v -1.060858 4.789537 -2.342614
v -1.104677 4.840418 -2.342614
v -0.729280 5.075093 2.342614
v -0.773098 5.125974 2.342614
v -0.729280 5.075093 -2.342614
v -0.773098 5.125974 -2.342614
v -1.416133 4.489774 2.342614
v -1.459952 4.540654 2.342614
v -1.416133 4.489774 -2.342614
v -1.459952 4.540654 -2.342614
v -1.084555 4.775330 2.342614
v -1.128373 4.826210 2.342614
v -1.084555 4.775330 -2.342614
v -1.128373 4.826210 -2.342614
v -1.771409 4.201112 2.342614
v -1.815228 4.251993 2.342614
v -1.771409 4.201112 -2.342614
v -1.815228 4.251993 -2.342614
v -1.439830 4.486668 2.342614
v -1.483649 4.537549 2.342614
v -1.439830 4.486668 -2.342614
v -1.483649 4.537549 -2.342614
vn -0.7840 0.6208 -0.0000
vn -0.0000 -0.0000 -1.0000
vn 0.7840 -0.6208 -0.0000
vn -0.0000 -0.0000 1.0000
vn -0.6208 -0.7840 -0.0000
vn 0.6208 0.7840 -0.0000
vn -0.7577 -0.6526 -0.0000
vn 0.7577 0.6526 -0.0000
vn 0.6526 -0.7577 -0.0000
vn -0.6526 0.7577 -0.0000
vt 0.375000 0.000000
vt 0.625000 0.000000
vt 0.625000 0.250000
vt 0.375000 0.250000
vt 0.625000 0.500000
vt 0.375000 0.500000
vt 0.625000 0.750000
vt 0.375000 0.750000
vt 0.625000 1.000000
vt 0.375000 1.000000
vt 0.125000 0.500000
vt 0.125000 0.750000
vt 0.875000 0.500000
vt 0.875000 0.750000
s 0
usemtl Material.003
f 1/1/1 2/2/1 4/3/1 3/4/1
f 3/4/2 4/3/2 8/5/2 7/6/2
f 7/6/3 8/5/3 6/7/3 5/8/3
f 5/8/4 6/7/4 2/9/4 1/10/4
f 3/11/5 7/6/5 5/8/5 1/12/5
f 8/5/6 4/13/6 2/14/6 6/7/6
f 9/1/1 10/2/1 12/3/1 11/4/1
f 11/4/2 12/3/2 16/5/2 15/6/2
f 15/6/3 16/5/3 14/7/3 13/8/3
f 13/8/4 14/7/4 10/9/4 9/10/4
f 11/11/5 15/6/5 13/8/5 9/12/5
f 16/5/6 12/13/6 10/14/6 14/7/6
f 17/1/1 18/2/1 20/3/1 19/4/1
f 19/4/2 20/3/2 24/5/2 23/6/2
f 23/6/3 24/5/3 22/7/3 21/8/3
f 21/8/4 22/7/4 18/9/4 17/10/4
f 19/11/5 23/6/5 21/8/5 17/12/5
f 24/5/6 20/13/6 18/14/6 22/7/6
f 25/1/1 26/2/1 28/3/1 27/4/1
f 27/4/2 28/3/2 32/5/2 31/6/2
f 31/6/3 32/5/3 30/7/3 29/8/3
f 29/8/4 30/7/4 26/9/4 25/10/4
f 27/11/5 31/6/5 29/8/5 25/12/5
f 32/5/6 28/13/6 26/14/6 30/7/6
f 33/1/1 34/2/1 36/3/1 35/4/1
f 35/4/2 36/3/2 40/5/2 39/6/2
f 39/6/3 40/5/3 38/7/3 37/8/3
f 37/8/4 38/7/4 34/9/4 33/10/4
f 35/11/5 39/6/5 37/8/5 33/12/5
f 40/5/6 36/13/6 34/14/6 38/7/6
f 41/1/7 42/2/7 44/3/7 43/4/7
f 43/4/2 44/3/2 48/5/2 47/6/2
f 47/6/8 48/5/8 46/7/8 45/8/8
f 45/8/4 46/7/4 42/9/4 41/10/4
f 43/11/9 47/6/9 45/8/9 41/12/9
f 48/5/10 44/13/10 42/14/10 46/7/10
f 49/1/7 50/2/7 52/3/7 51/4/7
f 51/4/2 52/3/2 56/5/2 55/6/2
f 55/6/8 56/5/8 54/7/8 53/8/8
f 53/8/4 54/7/4 50/9/4 49/10/4
f 51/11/9 55/6/9 53/8/9 49/12/9
f 56/5/10 52/13/10 50/14/10 54/7/10
f 57/1/7 58/2/7 60/3/7 59/4/7
f 59/4/2 60/3/2 64/5/2 63/6/2
f 63/6/8 64/5/8 62/7/8 61/8/8
f 61/8/4 62/7/4 58/9/4 57/10/4
f 59/11/9 63/6/9 61/8/9 57/12/9
f 64/5/10 60/13/10 58/14/10 62/7/10
f 65/1/7 66/2/7 68/3/7 67/4/7
f 67/4/2 68/3/2 72/5/2 71/6/2
f 71/6/8 72/5/8 70/7/8 69/8/8
f 69/8/4 70/7/4 66/9/4 65/10/4
f 67/11/9 71/6/9 69/8/9 65/12/9
f 72/5/10 68/13/10 66/14/10 70/7/10
f 73/1/7 74/2/7 76/3/7 75/4/7
f 75/4/2 76/3/2 80/5/2 79/6/2
f 79/6/8 80/5/8 78/7/8 77/8/8
f 77/8/4 78/7/4 74/9/4 73/10/4
f 75/11/9 79/6/9 77/8/9 73/12/9
f 80/5/10 76/13/10 74/14/10 78/7/10
