# Blender 4.0.1
# www.blender.org
mtllib awning.mtl
o awning
v -1.780999 2.427100 -2.687785
v 1.780999 2.427100 -2.687785
v -1.780999 2.132869 -3.873271
v 1.780999 2.132869 -3.873271
v -1.780999 1.821560 -3.873271
v 1.780999 1.821560 -3.873271
v -1.780999 2.150079 -3.884710
v -1.780999 2.444310 -2.699224
v 1.780999 2.444310 -2.699224
v 1.780999 2.150079 -3.884710
v 1.780999 2.132869 -3.899611
v -1.780999 2.132869 -3.899611
v 1.780999 1.821560 -3.899611
v -1.780999 1.821560 -3.899611
vn -0.0000 0.5536 0.8328
vn 1.0000 -0.0000 -0.0000
vn -0.0000 0.9706 -0.2409
vn -1.0000 -0.0000 -0.0000
vn -0.0000 -0.5535 -0.8328
vn -0.0000 -0.0000 -1.0000
vn -0.0000 -1.0000 -0.0000
vn -0.0000 1.0000 -0.0000
vt 0.000000 0.000000
vt 1.000000 0.000000
vt 1.000000 1.000000
vt 0.000000 1.000000
s 0
f 1/1/1 2/1/1 9/1/1 8/1/1
f 4/1/2 6/1/2 13/1/2 11/1/2
f 8/1/3 9/2/3 10/3/3 7/4/3
f 2/1/2 4/1/2 10/1/2 9/1/2
f 3/1/4 1/1/4 8/1/4 7/1/4
f 4/3/5 3/4/5 7/4/5 10/3/5
f 12/4/6 11/3/6 13/3/6 14/4/6
f 6/1/7 5/1/7 14/1/7 13/1/7
f 5/1/4 3/1/4 12/1/4 14/1/4
f 3/4/8 4/3/8 11/3/8 12/4/8
