# Blender 4.0.1
# www.blender.org
mtllib doorFrames.mtl
o dpor-frames
v 2.715240 1.563098 -0.983120
v 2.715240 1.644202 -0.983120
v 2.715240 1.563098 -0.910214
v 2.715240 1.644202 -0.910214
v 3.788203 1.563098 -0.983120
v 3.788203 1.644202 -0.983120
v 3.788203 1.563098 -0.910214
v 3.788203 1.644202 -0.910214
v 3.701330 1.563098 -0.910214
v 3.701330 1.644202 -0.910214
v 3.701330 1.563098 -0.983120
v 3.701330 1.644202 -0.983120
v 3.616260 1.563098 -0.910214
v 3.616260 1.644202 -0.983120
v 3.616260 1.644202 -0.910214
v 3.616260 1.563098 -0.983120
v 3.616260 0.089066 -0.983120
v 3.701330 0.089066 -0.983120
v 3.701330 0.089066 -0.910214
v 3.616260 0.089066 -0.910214
v 2.871748 1.563098 -0.910214
v 2.871748 1.644202 -0.983120
v 2.871748 1.644202 -0.910214
v 2.871748 1.563098 -0.983120
v 2.793494 1.563098 -0.910214
v 2.793494 1.644202 -0.983120
v 2.793494 1.644202 -0.910214
v 2.793494 1.563098 -0.983120
v 2.793494 0.136404 -0.983120
v 2.871748 0.136404 -0.983120
v 2.871748 0.136404 -0.910214
v 2.793494 0.136404 -0.910214
v 1.675825 4.043399 0.548043
v 1.675825 4.124503 0.548043
v 1.748731 4.043399 0.548043
v 1.748731 4.124503 0.548043
v 1.675825 4.043399 -0.524920
v 1.675825 4.124503 -0.524920
v 1.748731 4.043399 -0.524920
v 1.748731 4.124503 -0.524920
v 1.748731 4.043399 -0.438047
v 1.748731 4.124503 -0.438047
v 1.675825 4.043399 -0.438047
v 1.675825 4.124503 -0.438047
v 1.748731 4.043399 -0.352976
v 1.675825 4.124503 -0.352976
v 1.748731 4.124503 -0.352976
v 1.675825 4.043399 -0.352976
v 1.675825 2.569366 -0.352976
v 1.675825 2.569366 -0.438047
v 1.748731 2.569366 -0.438047
v 1.748731 2.569366 -0.352976
v 1.748731 4.043399 0.391535
v 1.675825 4.124503 0.391535
v 1.748731 4.124503 0.391535
v 1.675825 4.043399 0.391535
v 1.748731 4.043399 0.469789
v 1.675825 4.124503 0.469789
v 1.748731 4.124503 0.469789
v 1.675825 4.043399 0.469789
v 1.675825 2.616705 0.469789
v 1.675825 2.616705 0.391535
v 1.748731 2.616705 0.391535
v 1.748731 2.616705 0.469789
vn -1.0000 -0.0000 -0.0000
vn -0.0000 -0.0000 1.0000
vn 1.0000 -0.0000 -0.0000
vn -0.0000 -0.0000 -1.0000
vn -0.0000 -1.0000 -0.0000
vn -0.0000 1.0000 -0.0000
vt 0.375000 0.000000
vt 0.625000 0.000000
vt 0.625000 0.250000
vt 0.375000 0.250000
vt 0.375000 0.479759
vt 0.625000 0.479759
vt 0.625000 0.500000
vt 0.375000 0.500000
vt 0.625000 0.750000
vt 0.375000 0.750000
vt 0.375000 0.981767
vt 0.625000 0.981767
vt 0.625000 1.000000
vt 0.375000 1.000000
vt 0.354759 0.500000
vt 0.354759 0.750000
vt 0.856767 0.500000
vt 0.875000 0.500000
vt 0.875000 0.750000
vt 0.856767 0.750000
vt 0.645241 0.500000
vt 0.645241 0.750000
vt 0.375000 0.770241
vt 0.375000 0.790063
vt 0.625000 0.770241
vt 0.375000 0.459937
vt 0.625000 0.459937
vt 0.375000 0.286466
vt 0.625000 0.286466
vt 0.161466 0.500000
vt 0.334937 0.500000
vt 0.334937 0.750000
vt 0.161466 0.750000
vt 0.665063 0.500000
vt 0.665063 0.750000
vt 0.625000 0.790063
vt 0.375000 0.963534
vt 0.375000 0.268233
vt 0.625000 0.268233
vt 0.838534 0.500000
vt 0.838534 0.750000
vt 0.625000 0.963534
vt 0.125000 0.500000
vt 0.143233 0.500000
vt 0.143233 0.750000
vt 0.125000 0.750000
s 0
usemtl Material.004
f 1/1/1 3/4/1 4/3/1 2/2/1
f 9/5/2 7/8/2 8/7/2 10/6/2
f 7/8/3 5/10/3 6/9/3 8/7/3
f 28/11/4 1/14/4 2/13/4 26/12/4
f 9/15/5 11/16/5 5/10/5 7/8/5
f 27/17/6 26/20/6 2/19/6 4/18/6
f 8/7/6 6/9/6 12/22/6 10/21/6
f 11/23/4 18/23/4 17/24/4 16/24/4
f 5/10/4 11/23/4 12/25/4 6/9/4
f 13/26/2 9/5/2 10/6/2 15/27/2
f 21/28/2 13/26/2 15/27/2 23/29/2
f 21/30/5 24/33/5 16/32/5 13/31/5
f 10/21/6 12/22/6 14/35/6 15/34/6
f 11/23/4 16/24/4 14/36/4 12/25/4
f 20/31/5 17/32/5 18/16/5 19/15/5
f 16/32/1 17/32/1 20/31/1 13/31/1
f 9/15/3 19/15/3 18/16/3 11/16/3
f 13/26/2 20/26/2 19/5/2 9/5/2
f 24/37/4 30/37/4 29/11/4 28/11/4
f 25/38/2 21/28/2 23/29/2 27/39/2
f 15/34/6 14/35/6 22/41/6 23/40/6
f 16/24/4 24/37/4 22/42/4 14/36/4
f 3/4/2 25/38/2 27/39/2 4/3/2
f 3/43/5 1/46/5 28/45/5 25/44/5
f 23/40/6 22/41/6 26/20/6 27/17/6
f 24/37/4 28/11/4 26/12/4 22/42/4
f 32/44/5 29/45/5 30/33/5 31/30/5
f 25/38/2 32/38/2 31/28/2 21/28/2
f 21/30/3 31/30/3 30/33/3 24/33/3
f 28/45/1 29/45/1 32/44/1 25/44/1
f 33/1/2 35/4/2 36/3/2 34/2/2
f 41/5/3 39/8/3 40/7/3 42/6/3
f 39/8/4 37/10/4 38/9/4 40/7/4
f 60/11/1 33/14/1 34/13/1 58/12/1
f 41/15/5 43/16/5 37/10/5 39/8/5
f 59/17/6 58/20/6 34/19/6 36/18/6
f 40/7/6 38/9/6 44/22/6 42/21/6
f 43/23/1 50/23/1 49/24/1 48/24/1
f 37/10/1 43/23/1 44/25/1 38/9/1
f 45/26/3 41/5/3 42/6/3 47/27/3
f 53/28/3 45/26/3 47/27/3 55/29/3
f 53/30/5 56/33/5 48/32/5 45/31/5
f 42/21/6 44/22/6 46/35/6 47/34/6
f 43/23/1 48/24/1 46/36/1 44/25/1
f 52/31/5 49/32/5 50/16/5 51/15/5
f 48/32/2 49/32/2 52/31/2 45/31/2
f 41/15/4 51/15/4 50/16/4 43/16/4
f 45/26/3 52/26/3 51/5/3 41/5/3
f 56/37/1 62/37/1 61/11/1 60/11/1
f 57/38/3 53/28/3 55/29/3 59/39/3
f 47/34/6 46/35/6 54/41/6 55/40/6
f 48/24/1 56/37/1 54/42/1 46/36/1
f 35/4/3 57/38/3 59/39/3 36/3/3
f 35/43/5 33/46/5 60/45/5 57/44/5
f 55/40/6 54/41/6 58/20/6 59/17/6
f 56/37/1 60/11/1 58/12/1 54/42/1
f 64/44/5 61/45/5 62/33/5 63/30/5
f 57/38/3 64/38/3 63/28/3 53/28/3
f 53/30/4 63/30/4 62/33/4 56/33/4
f 60/45/2 61/45/2 64/44/2 57/44/2
