# Blender 4.0.1
# www.blender.org
mtllib flowers.mtl
o flowers
v 0.833746 0.461194 -2.808770
v 1.301739 0.461194 -2.808770
v 0.833746 0.740849 -2.808770
v 1.301739 0.740849 -2.808770
vn -0.0000 -0.0000 1.0000
vt 0.000000 0.000000
vt 1.000000 0.000000
vt 1.000000 1.000000
vt 0.000000 1.000000
s 0
f 1/1/1 2/2/1 4/3/1 3/4/1
o flowers.001
v -0.275148 0.461194 -2.808770
v 0.192844 0.461194 -2.808770
v -0.275148 0.740849 -2.808770
v 0.192844 0.740849 -2.808770
vn -0.0000 -0.0000 1.0000
vt 0.000000 0.000000
vt 1.000000 0.000000
vt 1.000000 1.000000
vt 0.000000 1.000000
s 0
f 5/5/2 6/6/2 8/7/2 7/8/2
o flowers.002
v -1.396385 0.461194 -2.808770
v -0.928393 0.461194 -2.808770
v -1.396385 0.740849 -2.808770
v -0.928393 0.740849 -2.808770
vn -0.0000 -0.0000 1.0000
vt 0.000000 0.000000
vt 1.000000 0.000000
vt 1.000000 1.000000
vt 0.000000 1.000000
s 0
f 9/9/3 10/10/3 12/11/3 11/12/3
