# Blender 4.0.1
# www.blender.org
mtllib house-main.mtl
o house-main
v -1.979841 0.014849 2.673341
v -1.674119 4.293839 2.260531
v -1.979841 0.014849 -2.673341
v -1.674119 4.293839 -2.260531
v 1.979841 0.014849 2.673341
v 1.674119 4.293839 2.260531
v 1.979841 0.014849 -2.673341
v 1.674119 4.293839 -2.260531
v -1.979841 0.014849 -0.891114
v -1.979841 0.014849 0.891114
v -1.674119 4.293839 0.753510
v -1.674119 4.293839 -0.753510
v 1.979841 0.014849 0.891114
v 1.979841 0.014849 -0.891114
v 1.674119 4.293839 -0.753510
v 1.674119 4.293839 0.753510
v -1.979841 2.689114 2.673341
v -1.979841 2.689114 -2.673341
v 1.979841 2.689114 -2.673341
v 1.979841 2.689114 2.673341
v 1.979841 2.689114 -0.891114
v 1.979841 2.689114 0.891114
v -1.979841 2.689114 0.891114
v -1.979841 2.689114 -0.891114
v 4.632300 0.014849 0.891114
v 4.632300 0.014849 -0.891114
v 4.632300 2.653255 -0.891114
v 4.632300 2.653255 0.891114
v 0.000000 0.014849 -2.673341
v 0.000000 5.652046 -2.260531
v 0.000000 0.014849 2.673341
v 0.000000 5.652046 2.260531
v 0.000000 5.652046 -0.753510
v 0.000000 5.652046 0.753510
v 0.000000 0.014849 -0.891114
v 0.000000 0.014849 0.891114
v 0.000000 2.689784 2.675670
v 0.010547 2.670746 -2.675556
v -1.979841 2.488799 -2.673341
v 1.979841 2.488799 -2.673341
v 1.979841 2.488799 2.673341
v 1.979841 2.488799 -0.891114
v 1.979841 2.488799 0.891114
v -1.979841 2.488799 0.891114
v -1.979841 2.488799 -0.891114
v -1.979841 2.488799 2.673341
v 4.632300 2.488799 -0.891114
v 4.632300 2.488799 0.891114
v 0.000000 2.488799 -2.673341
v 0.000000 2.488799 2.673341
v -1.674119 2.687165 2.260531
v -1.674119 2.687165 -2.260531
v 1.674119 2.687165 -2.260531
v 1.674119 2.687165 2.260531
v 1.674119 2.687165 -0.753510
v 1.674119 2.687165 0.753510
v -1.674119 2.687165 0.753510
v -1.674119 2.687165 -0.753510
v 0.000000 2.670029 2.258201
v -0.010547 2.682452 -2.258316
v -1.979841 0.014849 0.678358
v -1.674119 4.293839 0.573608
v 1.979841 0.014849 0.678358
v 1.674119 4.293839 0.573608
v -1.979841 2.689114 0.678358
v 1.979841 2.689114 0.678358
v 4.632300 0.014849 0.678358
v 4.632300 2.653255 0.678358
v 0.000000 0.014849 0.678358
v 0.000000 5.652046 0.573608
v 4.632300 2.488799 0.678358
v -1.979841 2.488799 0.678358
v -1.674119 2.687165 0.573608
v 1.674119 2.687165 0.573608
v 4.409394 2.656268 -0.891114
v 4.409394 0.014849 -0.891114
v 4.409394 2.656268 0.891114
v 4.409394 0.014849 0.891114
v 4.409394 2.488799 0.891114
v 4.409394 2.488799 -0.891114
v 4.409394 0.014849 0.678358
v 4.409394 2.656268 0.678358
v 1.987748 3.274000 0.678358
v 1.987748 3.274000 0.891114
v 4.640208 3.238141 0.678358
v 4.640208 3.238141 0.891114
v 4.417302 3.241154 -0.891114
v 4.640208 3.238141 -0.891114
v 4.417302 3.241154 0.891114
v 4.417302 3.241154 0.678358
v 1.979841 2.689114 -2.673341
v 1.979841 2.689114 -0.891114
v 0.010547 2.670746 -2.675556
v 4.632300 2.653255 0.678358
v 4.632300 2.653255 0.891114
v 4.409394 2.656268 -0.891114
v 4.632300 2.653255 -0.891114
v 4.409394 2.656268 0.891114
v -1.979841 2.689114 -2.673341
v -1.979841 2.488799 -2.673341
v 1.979841 2.488799 -2.673341
v 1.979841 2.488799 -0.891114
v 1.979841 2.689114 0.891114
v 1.979841 2.488799 0.891114
v 4.632300 2.488799 -0.891114
v 4.632300 2.488799 0.891114
v 0.000000 2.488799 -2.673341
v 4.409394 2.488799 0.891114
v 4.632300 2.488799 0.678358
v 4.409394 2.488799 -0.891114
v 2.044871 2.688697 -2.760685
v 2.044928 2.689114 -0.978382
v 0.010549 2.670156 -2.799407
v 4.724024 2.653255 0.678358
v 4.696932 2.653255 0.978997
v 4.409394 2.656268 -1.014967
v 4.696932 2.653255 -0.978997
v 4.409394 2.656268 1.014967
v -1.979880 2.688525 -2.797193
v -1.979880 2.488210 -2.797193
v 2.044713 2.488380 -2.760898
v 2.044699 2.488799 -0.978691
v 1.979841 2.689114 1.014967
v 1.979841 2.488799 1.014967
v 4.697159 2.488799 -0.978691
v 4.697159 2.488799 0.978691
v -0.000002 2.488209 -2.797193
v 4.409394 2.488799 1.014967
v 4.724024 2.488799 0.678358
v 4.409394 2.488799 -1.014967
vn -1.0000 -0.0000 -0.0000
vn -0.0009 -0.0005 -1.0000
vn 1.0000 -0.0000 -0.0000
vn 0.0009 -0.0005 1.0000
vn -0.0000 -1.0000 -0.0000
vn -0.6300 0.7766 -0.0000
vn -0.0000 1.0000 -0.0000
vn -0.0006 -0.0058 1.0000
vn -0.0000 -0.0000 -1.0000
vn -0.0000 -0.0000 1.0000
vn 0.0006 -0.0058 1.0000
vn 0.6300 0.7766 -0.0000
vn -0.0009 -0.0005 1.0000
vn 0.0009 -0.0005 -1.0000
vn 0.0063 0.9999 -0.0139
vn -0.0045 0.9997 -0.0245
vn 0.0064 1.0000 -0.0000
vn -0.0064 1.0000 -0.0000
vn 0.0045 0.9997 -0.0245
vn -0.0063 0.9999 -0.0142
vn 0.0135 0.9999 -0.0000
vn 0.9999 -0.0135 -0.0000
vn -0.9999 0.0135 -0.0000
vn -0.0091 0.9999 -0.0076
vn 0.0031 1.0000 -0.0001
vn 0.0137 0.9999 0.0042
vn -1.0000 -0.0000 0.0003
vn -0.0000 -1.0000 0.0048
vn 0.1246 -0.0008 -0.9922
vn 1.0000 -0.0010 -0.0000
vn 0.0184 -0.0058 -0.9998
vn 0.9960 0.0006 0.0894
vn -0.0006 -0.0058 -1.0000
vn 0.1246 -0.0008 0.9922
vn 0.9999 0.0007 -0.0163
vn -0.0154 0.0009 -0.9999
vn -0.0031 -1.0000 0.0001
vn 0.0116 0.9999 0.0035
vn 0.0116 0.9999 -0.0035
vn 0.0092 0.9999 -0.0048
vt 0.504587 0.166667
vt 0.625000 0.166667
vt 0.625000 0.250000
vt 0.504587 0.250000
vt 0.504587 0.375000
vt 0.625000 0.375000
vt 0.625000 0.500000
vt 0.504587 0.500000
vt 0.504587 0.666667
vt 0.625000 0.666667
vt 0.625000 0.750000
vt 0.504587 0.750000
vt 0.504587 0.875000
vt 0.625000 0.875000
vt 0.625000 1.000000
vt 0.504587 1.000000
vt 0.250000 0.666667
vt 0.375000 0.666667
vt 0.375000 0.750000
vt 0.250000 0.750000
vt 0.750000 0.666667
vt 0.875000 0.666667
vt 0.875000 0.750000
vt 0.750000 0.750000
vt 0.750000 0.500000
vt 0.875000 0.500000
vt 0.875000 0.583333
vt 0.750000 0.583333
vt 0.750000 0.656719
vt 0.875000 0.656719
vt 0.250000 0.500000
vt 0.375000 0.500000
vt 0.375000 0.583333
vt 0.250000 0.583333
vt 0.250000 0.656719
vt 0.375000 0.656719
vt 0.625000 0.583333
vt 0.504587 0.583333
vt 0.504587 0.656719
vt 0.625000 0.656719
vt 0.504587 0.000000
vt 0.625000 0.000000
vt 0.625000 0.083333
vt 0.504587 0.083333
vt 0.504587 0.093281
vt 0.625000 0.093281
vt 0.488681 0.093281
vt 0.500000 0.093281
vt 0.500000 0.166667
vt 0.488681 0.166667
vt 0.488681 0.000000
vt 0.500000 0.000000
vt 0.500000 0.083333
vt 0.488681 0.083333
vt 0.500000 0.666667
vt 0.488681 0.250000
vt 0.500000 0.250000
vt 0.488681 0.875000
vt 0.500000 0.875000
vt 0.500000 1.000000
vt 0.488681 1.000000
vt 0.488681 0.666667
vt 0.500000 0.750000
vt 0.488681 0.750000
vt 0.500000 0.375000
vt 0.500000 0.500000
vt 0.500000 0.583333
vt 0.500000 0.583333
vt 0.125000 0.656719
vt 0.125000 0.666667
vt 0.125000 0.500000
vt 0.125000 0.583333
vt 0.125000 0.750000
vt 0.375000 0.875000
vt 0.375000 0.250000
vt 0.488681 0.375000
vt 0.375000 0.375000
vt 0.500000 0.656719
vt 0.488681 0.656719
vt 0.375000 0.166667
vt 0.488681 0.500000
vt 0.375000 1.000000
vt 0.488681 0.583333
vt 0.375000 0.000000
vt 0.375000 0.083333
vt 0.375000 0.093281
s 0
usemtl Material.001
f 58/1/1 12/2/1 4/3/1 52/4/1
f 60/5/2 30/6/2 8/7/2 53/8/2
f 56/9/3 16/10/3 6/11/3 54/12/3
f 59/13/4 32/14/4 2/15/4 51/16/4
f 36/17/5 13/18/5 5/19/5 31/20/5
f 34/21/6 11/22/6 2/23/6 32/24/6
f 30/25/6 4/26/6 12/27/6 33/28/6
f 70/29/6 62/30/6 11/22/6 34/21/6
f 29/31/5 7/32/5 14/33/5 35/34/5
f 69/35/5 63/36/5 13/18/5 36/17/5
f 53/8/3 8/7/3 15/37/3 55/38/3
f 74/39/3 64/40/3 16/10/3 56/9/3
f 51/41/1 2/42/1 11/43/1 57/44/1
f 73/45/1 62/46/1 12/2/1 58/1/1
f 72/47/1 65/48/1 24/49/1 45/50/1
f 46/51/1 17/52/1 23/53/1 44/54/1
f 28/55/7 77/55/7 98/55/7 95/55/7
f 39/56/7 18/57/7 99/57/7 100/56/7
f 50/58/8 37/59/8 17/60/8 46/61/8
f 43/62/3 22/55/3 20/63/3 41/64/3
f 77/55/7 22/55/7 103/55/7 98/55/7
f 45/50/1 24/49/1 18/57/1 39/56/1
f 38/65/7 19/66/7 91/66/7 93/65/7
f 27/67/9 75/68/9 87/68/9 88/67/9
f 79/62/10 78/18/10 25/18/10 48/62/10
f 81/36/5 76/33/5 26/33/5 67/36/5
f 79/62/7 48/62/7 106/62/7 108/62/7
f 41/64/11 20/63/11 37/59/11 50/58/11
f 61/69/5 69/35/5 36/17/5 10/70/5
f 3/71/5 29/31/5 35/34/5 9/72/5
f 64/40/12 70/29/12 34/21/12 16/10/12
f 8/7/12 30/25/12 33/28/12 15/37/12
f 16/10/12 34/21/12 32/24/12 6/11/12
f 10/70/5 36/17/5 31/20/5 1/73/5
f 54/12/13 6/11/13 32/14/13 59/13/13
f 52/4/14 4/3/14 30/6/14 60/5/14
f 5/19/10 41/64/10 50/58/10 31/74/10
f 3/75/9 39/56/9 49/76/9 29/77/9
f 27/67/7 68/78/7 94/78/7 97/67/7
f 67/36/3 71/79/3 48/62/3 25/18/3
f 9/80/1 45/50/1 39/56/1 3/75/1
f 29/77/9 49/76/9 40/81/9 7/32/9
f 13/18/3 43/62/3 41/64/3 5/19/3
f 31/74/10 50/58/10 46/61/10 1/82/10
f 7/32/3 40/81/3 42/83/3 14/33/3
f 76/33/9 80/83/9 47/83/9 26/33/9
f 1/84/1 46/51/1 44/54/1 10/85/1
f 61/86/1 72/47/1 45/50/1 9/80/1
f 18/57/15 52/4/15 60/5/15 38/65/15
f 20/63/16 54/12/16 59/13/16 37/59/16
f 65/48/17 73/45/17 58/1/17 24/49/17
f 17/52/17 51/41/17 57/44/17 23/53/17
f 66/78/18 74/39/18 56/9/18 22/55/18
f 19/66/18 53/8/18 55/38/18 21/67/18
f 37/59/19 59/13/19 51/16/19 17/60/19
f 22/55/18 56/9/18 54/12/18 20/63/18
f 38/65/20 60/5/20 53/8/20 19/66/20
f 24/49/17 58/1/17 52/4/17 18/57/17
f 21/67/18 55/38/18 74/39/18 66/78/18
f 23/53/17 57/44/17 73/45/17 65/48/17
f 10/85/1 44/54/1 72/47/1 61/86/1
f 26/33/3 47/83/3 71/79/3 67/36/3
f 15/37/12 33/28/12 70/29/12 64/40/12
f 9/72/5 35/34/5 69/35/5 61/69/5
f 78/18/5 81/36/5 67/36/5 25/18/5
f 77/55/10 28/55/10 86/55/10 89/55/10
f 47/83/7 80/83/7 110/83/7 105/83/7
f 44/54/1 23/53/1 65/48/1 72/47/1
f 57/44/1 11/43/1 62/46/1 73/45/1
f 55/38/3 15/37/3 64/40/3 74/39/3
f 35/34/5 14/33/5 63/36/5 69/35/5
f 33/28/6 12/27/6 62/30/6 70/29/6
f 21/67/21 66/78/21 82/78/21 75/68/21
f 13/18/5 63/36/5 81/36/5 78/18/5
f 14/33/9 42/83/9 80/83/9 76/33/9
f 49/76/7 39/56/7 100/56/7 107/76/7
f 63/36/5 14/33/5 76/33/5 81/36/5
f 43/62/10 13/18/10 78/18/10 79/62/10
f 82/78/9 66/78/9 83/78/9 90/78/9
f 75/68/7 27/67/7 97/67/7 96/68/7
f 90/78/21 89/55/21 86/55/21 85/78/21
f 87/68/21 90/78/21 85/78/21 88/67/21
f 83/78/21 84/55/21 89/55/21 90/78/21
f 68/78/22 27/67/22 88/67/22 85/78/22
f 75/68/23 82/78/23 90/78/23 87/68/23
f 66/78/23 22/55/23 84/55/23 83/78/23
f 22/55/10 77/55/10 89/55/10 84/55/10
f 28/55/22 68/78/22 85/78/22 86/55/22
f 93/65/24 91/66/24 111/66/24 113/65/24
f 98/55/21 103/55/21 123/55/21 118/55/21
f 106/62/5 109/79/5 129/79/5 126/62/5
f 91/66/25 92/67/25 112/67/25 111/66/25
f 92/67/26 96/68/26 116/68/26 112/67/26
f 108/62/5 106/62/5 126/62/5 128/62/5
f 100/56/27 99/57/27 119/57/27 120/56/27
f 107/76/28 100/56/28 120/56/28 127/76/28
f 109/79/5 105/83/5 125/83/5 129/79/5
f 48/62/7 71/79/7 109/79/7 106/62/7
f 43/62/7 79/62/7 108/62/7 104/62/7
f 71/79/7 47/83/7 105/83/7 109/79/7
f 40/81/7 49/76/7 107/76/7 101/81/7
f 80/83/7 42/83/7 102/83/7 110/83/7
f 18/57/7 38/65/7 93/65/7 99/57/7
f 19/66/7 21/67/7 92/67/7 91/66/7
f 22/55/7 43/62/7 104/62/7 103/55/7
f 68/78/7 28/55/7 95/55/7 94/78/7
f 42/83/7 40/81/7 101/81/7 102/83/7
f 21/67/7 75/68/7 96/68/7 92/67/7
f 130/83/29 116/68/29 117/67/29 125/83/29
f 121/81/30 111/66/30 112/67/30 122/83/30
f 127/76/31 113/65/31 111/66/31 121/81/31
f 129/79/32 114/78/32 115/55/32 126/62/32
f 120/56/33 119/57/33 113/65/33 127/76/33
f 118/55/34 128/62/34 126/62/34 115/55/34
f 125/83/35 117/67/35 114/78/35 129/79/35
f 123/55/10 124/62/10 128/62/10 118/55/10
f 122/83/36 112/67/36 116/68/36 130/83/36
f 101/81/28 107/76/28 127/76/28 121/81/28
f 103/55/1 104/62/1 124/62/1 123/55/1
f 104/62/5 108/62/5 128/62/5 124/62/5
f 94/78/7 95/55/7 115/55/7 114/78/7
f 102/83/37 101/81/37 121/81/37 122/83/37
f 110/83/5 102/83/5 122/83/5 130/83/5
f 96/68/38 97/67/38 117/67/38 116/68/38
f 105/83/5 110/83/5 130/83/5 125/83/5
f 95/55/39 98/55/39 118/55/39 115/55/39
f 97/67/7 94/78/7 114/78/7 117/67/7
f 99/57/40 93/65/40 113/65/40 119/57/40
