# Blender 4.0.1
# www.blender.org
mtllib stairs.mtl
o stairs
v 3.254400 0.182564 -1.360312
v 3.254400 0.128351 -1.360312
v 3.557056 0.182564 -1.234947
v 3.557056 0.128351 -1.234947
v 3.682421 0.182564 -0.932291
v 3.682421 0.128351 -0.932291
v 2.826379 0.182564 -0.932291
v 2.826379 0.128351 -0.932291
v 2.951744 0.182564 -1.234947
v 2.951744 0.128351 -1.234947
v 3.405728 0.182564 -1.297630
v 3.405728 0.128351 -1.297630
v 3.254400 0.124482 -1.517041
v 3.254400 0.070269 -1.517041
v 3.670081 0.124482 -1.345772
v 3.670081 0.070269 -1.345772
v 3.842262 0.124482 -0.932291
v 3.842262 0.070269 -0.932291
v 2.666538 0.124482 -0.932291
v 2.666538 0.070269 -0.932291
v 2.838718 0.124482 -1.345772
v 2.838718 0.070269 -1.345772
v 3.462240 0.124482 -1.431407
v 3.462240 0.070269 -1.431407
v 3.254400 0.069191 -1.630099
v 3.254400 0.014979 -1.630099
v 3.767565 0.069191 -1.425716
v 3.767565 0.014979 -1.425716
v 3.980125 0.069191 -0.932291
v 3.980125 0.014979 -0.932291
v 2.528675 0.069191 -0.932291
v 2.528675 0.014979 -0.932291
v 2.741235 0.069191 -1.425716
v 2.741235 0.014979 -1.425716
v 3.510983 0.069191 -1.527907
v 3.510983 0.014979 -1.527907
vn 0.3827 -0.0000 -0.9239
vn 0.9239 -0.0000 -0.3827
vn -0.9239 -0.0000 -0.3827
vn -0.3827 -0.0000 -0.9239
vn -0.0000 -0.0000 1.0000
vn -0.0000 1.0000 -0.0000
vn -0.0000 -1.0000 -0.0000
vn 0.3810 -0.0000 -0.9246
vn 0.9232 -0.0000 -0.3844
vn -0.9232 -0.0000 -0.3844
vn -0.3810 -0.0000 -0.9246
vn 0.3700 -0.0000 -0.9290
vn 0.9184 -0.0000 -0.3956
vn -0.9184 -0.0000 -0.3956
vn -0.3700 -0.0000 -0.9290
vt 0.937500 0.500000
vt 0.937500 1.000000
vt 0.875000 1.000000
vt 0.875000 0.500000
vt 0.750000 1.000000
vt 0.750000 0.500000
vt 0.250000 0.500000
vt 0.250000 1.000000
vt 0.125000 1.000000
vt 0.125000 0.500000
vt 0.000000 1.000000
vt 0.000000 0.500000
vt 1.000000 0.500000
vt 1.000000 1.000000
s 0
usemtl Material.002
f 11/1/1 3/4/1 4/3/1 12/2/1
f 3/4/2 5/6/2 6/5/2 4/3/2
f 7/7/3 9/10/3 10/9/3 8/8/3
f 9/10/4 1/12/4 2/11/4 10/9/4
f 1/13/1 11/1/1 12/2/1 2/14/1
f 5/6/5 7/7/5 8/8/5 6/5/5
f 11/1/6 1/13/6 9/10/6 7/7/6 5/6/6 3/4/6
f 2/11/7 12/2/7 4/3/7 6/5/7 8/8/7 10/9/7
f 23/1/8 15/4/8 16/3/8 24/2/8
f 15/4/9 17/6/9 18/5/9 16/3/9
f 19/7/10 21/10/10 22/9/10 20/8/10
f 21/10/11 13/12/11 14/11/11 22/9/11
f 13/13/8 23/1/8 24/2/8 14/14/8
f 17/6/5 19/7/5 20/8/5 18/5/5
f 23/1/6 13/13/6 21/10/6 19/7/6 17/6/6 15/4/6
f 14/11/7 24/2/7 16/3/7 18/5/7 20/8/7 22/9/7
f 35/1/12 27/4/12 28/3/12 36/2/12
f 27/4/13 29/6/13 30/5/13 28/3/13
f 31/7/14 33/10/14 34/9/14 32/8/14
f 33/10/15 25/12/15 26/11/15 34/9/15
f 25/13/12 35/1/12 36/2/12 26/14/12
f 29/6/5 31/7/5 32/8/5 30/5/5
f 35/1/6 25/13/6 33/10/6 31/7/6 29/6/6 27/4/6
f 26/11/7 36/2/7 28/3/7 30/5/7 32/8/7 34/9/7
